<svg xmlns="http://www.w3.org/2000/svg" viewBox="0 0 24 24" class="w-16">
  <title>Settings</title>
  <path
    d="M 17.25 12 M 19 3 H 5 C 3.89 3 3 3.89 3 5 V 19 A 2 2 0 0 0 5 21 H 19 A 2 2 0 0 0 21 19 V 5 C 21 3.89 20.1 3 19 3 Z"
  />
  <path
    class="fill-white"
    d="M 17.25 12 C 17.25 12.23 17.23 12.46 17.2 12.68 L 18.68 13.84 C 18.81 13.95 18.85 14.13 18.76 14.29 L 17.36 16.71 C 17.27 16.86 17.09 16.92 16.93 16.86 L 15.19 16.16 C 14.83 16.44 14.43 16.67 14 16.85 L 13.75 18.7 C 13.72 18.87 13.57 19 13.4 19 H 10.6 C 10.43 19 10.28 18.87 10.25 18.7 L 10 16.85 C 9.56 16.67 9.17 16.44 8.81 16.16 L 7.07 16.86 C 6.91 16.92 6.73 16.86 6.64 16.71 L 5.24 14.29 C 5.15 14.13 5.19 13.95 5.32 13.84 L 6.8 12.68 C 6.77 12.46 6.75 12.23 6.75 12 C 6.75 11.77 6.77 11.54 6.8 11.32 L 5.32 10.16 C 5.19 10.05 5.15 9.86 5.24 9.71 L 6.64 7.29 C 6.73 7.13 6.91 7.07 7.07 7.13 L 8.81 7.84 C 9.17 7.56 9.56 7.32 10 7.15 L 10.25 5.29 C 10.28 5.13 10.43 5 10.6 5 H 13.4 C 13.57 5 13.72 5.13 13.75 5.29 L 14 7.15 C 14.43 7.32 14.83 7.56 15.19 7.84 L 16.93 7.13 C 17.09 7.07 17.27 7.13 17.36 7.29 L 18.76 9.71 C 18.85 9.86 18.81 10.05 18.68 10.16 L 17.2 11.32 C 17.23 11.54 17.25 11.77 17.25 12 H 17 M 12 10 C 10.89 10 10 10.89 10 12 A 2 2 0 0 0 12 14 A 2 2 0 0 0 14 12 C 14 10.89 13.1 10 12 10 Z"
  />
</svg>
