<svg
  xmlns="http://www.w3.org/2000/svg"
  viewBox="0 0 512 512"
  width="200"
  height="200"
>
  <path
    fill="none"
    stroke="#fde047"
    stroke-linecap="round"
    stroke-linejoin="round"
    stroke-width="32"
    d="M 120 352 M 208 304 l -16 96 h 48 v 80 l 80 -112 h -48 l 16 -64 z"
  />
  <path
    fill="#0ea5e9"
    stroke="#0ea5e9"
    stroke-linecap="round"
    stroke-linejoin="round"
    stroke-width="32"
    d="M 120 352 l -24 48 M 136 432 l -16 32 M 400 352 l -24 48 M 416 432 l -16 32"
  />
  <path
    fill="none"
    stroke="#cbd5e1"
    stroke-linecap="round"
    stroke-linejoin="round"
    stroke-width="32"
    d="M 120 352 m 284.33 -199.11 H 392.2 C 384.71 84.85 326.14 32 256 32 a 136.39 136.39 0 0 0 -128.63 90.67 h -4.57 c -49.94 0 -90.8 40.8 -90.8 90.66 h 0 C 32 263.2 72.86 304 122.8 304 h 281.53 C 446 304 480 270 480 228.44 h 0 c 0 -41.55 -34 -75.55 -75.67 -75.55 z"
  />
</svg>
